<svg width="150" height="151" viewBox="0 0 150 151" fill="none" xmlns="http://www.w3.org/2000/svg">
<g clip-path="url(#clip0_1486_238)">
<path d="M74.8764 0.0204484C74.8764 0.0204484 119.009 -1.96002 142.407 42.4001H71.1211C71.1211 42.4001 57.668 41.9665 46.176 58.2872C42.8748 65.1374 39.3264 72.1939 43.3084 86.1005C37.5721 76.3822 12.8543 33.3427 12.8543 33.3427C12.8543 33.3427 30.2889 1.77416 74.8758 0.0204484H74.8764Z" fill="#EF3F36"/>
<path d="M140.117 112.634C140.117 112.634 119.752 151.857 69.6562 149.917C75.8461 139.209 105.309 88.1842 105.309 88.1842C105.309 88.1842 112.428 76.7537 104.03 58.6383C99.7588 52.3453 95.4053 45.7635 81.3756 42.2555C92.6619 42.1529 142.284 42.2555 142.284 42.2555C142.284 42.2555 160.873 73.1432 140.117 112.634Z" fill="#FCD900"/>
<path d="M9.94517 112.944C9.94517 112.944 -13.8445 75.7014 12.8954 33.2807C19.0647 43.9893 48.528 95.0139 48.528 95.0139C48.528 95.0139 54.8831 106.898 74.7522 108.672C82.3249 108.115 90.2063 107.641 100.276 97.2627C94.7245 107.084 69.8204 150 69.8204 150C69.8204 150 33.7547 150.66 9.94458 112.944H9.94517Z" fill="#61BC5B"/>
<path d="M69.6357 150.289L79.6629 108.446C79.6629 108.446 90.6809 107.579 99.9246 97.4484C94.1883 107.538 69.6357 150.289 69.6357 150.289V150.289Z" fill="#5AB055"/>
<path d="M41.2864 75.6187C41.2864 57.1734 56.2454 42.2144 74.6907 42.2144C93.136 42.2144 108.095 57.1734 108.095 75.6187C108.095 94.0646 93.136 109.023 74.6907 109.023C56.2454 109.002 41.2864 94.0646 41.2864 75.6187V75.6187Z" fill="white"/>
<path d="M46.8773 75.6188C46.8773 60.2684 59.3191 47.8061 74.6906 47.8061C90.041 47.8061 102.503 60.2479 102.503 75.6188C102.503 90.9698 90.0621 103.432 74.6906 103.432C59.3396 103.432 46.8773 90.9698 46.8773 75.6188V75.6188Z" fill="url(#paint0_linear_1486_238)"/>
<path d="M142.263 42.2766L100.976 54.388C100.976 54.388 94.7455 45.2473 81.355 42.2766C92.9713 42.2145 142.263 42.2766 142.263 42.2766V42.2766Z" fill="#EACA05"/>
<path d="M42.5039 84.5736C36.7055 74.5254 12.8543 33.3428 12.8543 33.3428L43.432 63.59C43.432 63.59 40.2955 70.0482 41.4721 79.2914L42.5033 84.5736H42.5039Z" fill="#DF3A32"/>
</g>
<defs>
<linearGradient id="paint0_linear_1486_238" x1="74.6892" y1="48.1988" x2="74.6892" y2="101.758" gradientUnits="userSpaceOnUse">
<stop stop-color="#86BBE5"/>
<stop offset="1" stop-color="#1072BA"/>
</linearGradient>
<clipPath id="clip0_1486_238">
<rect width="150" height="150.586" fill="white"/>
</clipPath>
</defs>
</svg>
