<svg width="150" height="156" viewBox="0 0 150 156" fill="none" xmlns="http://www.w3.org/2000/svg">
<path d="M121.172 14.4141C117.422 18.8086 115.664 28.6523 119.473 38.6719C123.281 48.6914 129.141 46.5234 132.773 56.7188C137.578 70.1953 135.352 88.3008 135.352 88.3008C135.352 88.3008 141.152 105.059 145.195 87.2461C154.16 53.7891 121.172 22.6758 121.172 14.4141Z" fill="url(#paint0_radial_1486_247)"/>
<path d="M75.2345 153.34C113.848 153.34 145.078 121.934 145.078 83.1445C145.078 44.3555 113.789 13.0078 75.2345 13.0078C36.6798 13.0078 5.4493 44.4141 5.4493 83.1445C5.39071 121.934 36.6798 153.34 75.2345 153.34Z" fill="url(#paint1_radial_1486_247)"/>
<path d="M127.559 126.445C126.035 127.5 124.453 128.437 122.812 129.316C124.98 126.094 127.031 122.812 128.848 119.414C130.312 117.773 131.719 116.191 132.832 114.434C133.359 113.555 134.004 112.559 134.648 111.328C138.574 104.238 142.91 92.8125 143.027 81.0938V80.2148C143.027 77.2852 142.734 74.2969 142.148 71.4258C142.207 71.6602 142.207 71.8945 142.266 72.1289C142.207 71.9531 142.207 71.7773 142.148 71.6016C142.207 71.8945 142.266 72.2461 142.324 72.5391C143.145 79.3359 142.559 85.957 139.687 90.8789C139.629 90.9375 139.57 90.9961 139.57 91.1133C141.035 83.6719 141.562 75.4688 139.922 67.2656C139.922 67.2656 139.277 63.2813 134.355 51.1523C131.543 44.1797 126.504 38.4375 122.109 34.2773C118.242 29.4727 114.668 26.25 112.734 24.1992C108.691 19.9219 106.992 16.6992 106.289 14.6484C105.703 14.3555 97.9102 6.79688 97.3242 6.50391C93.9258 11.7773 83.3203 28.1836 88.3594 43.4766C90.6445 50.4492 96.4453 57.6563 102.539 61.6992C102.832 61.9922 106.172 65.625 107.754 73.8281C109.395 82.3242 108.516 88.8867 105.176 98.6719C101.191 107.227 90.9961 115.723 81.4453 116.602C61.0547 118.477 53.5547 106.348 53.5547 106.348C60.8203 109.277 68.9062 108.633 73.8281 105.645C78.75 102.598 81.7383 100.312 84.1992 101.191C86.6016 102.07 88.4766 99.4922 86.7773 96.7969C84.082 92.6367 79.1601 90.5273 74.2969 91.3476C69.375 92.168 64.8047 96.0938 58.3594 92.2852C57.9492 92.0508 57.5391 91.7578 57.1289 91.4648C56.7187 91.1719 58.5351 91.875 58.0664 91.582C56.8359 90.8789 54.5508 89.4141 54.0234 88.8867C53.9062 88.7695 55.0195 89.2383 54.9023 89.1211C48.8672 84.1406 49.6289 80.7422 49.8047 78.6328C49.9805 76.9336 51.0352 74.7656 52.9102 73.8867C53.7891 74.3555 54.375 74.7656 54.375 74.7656C54.375 74.7656 53.9648 74.0039 53.7891 73.5938C53.8477 73.5352 53.9062 73.5938 54.0234 73.5352C54.7851 73.8867 56.3672 74.8242 57.2461 75.3516C58.3594 76.1133 58.7109 76.8164 58.7109 76.8164C58.7109 76.8164 59.0039 76.6406 58.7695 75.9961C58.7109 75.7031 58.3594 74.8242 57.2461 73.9453H57.3047C57.9492 74.2969 58.5937 74.7656 59.1797 75.2344C59.4726 74.1211 60.0586 72.9492 59.9414 70.8398C59.8828 69.375 59.8828 68.9648 59.6484 68.3789C59.4141 67.9102 59.7656 67.6758 60.1758 68.2031C60.1172 67.793 60 67.3828 59.8242 67.0312V66.9727C60.3516 65.2148 70.5469 60.5859 71.3086 60.0586C72.5391 59.1797 73.5351 58.0664 74.2969 56.7773C74.8828 55.8984 75.293 54.6094 75.4101 52.6758C75.4687 51.2695 74.8242 50.332 64.4531 49.2773C61.6406 48.9844 59.9414 46.9336 59.0039 45.0586C58.8281 44.6484 58.6523 44.2969 58.4766 43.8867C58.3008 43.4766 58.1836 43.0078 58.0664 42.5391C59.7656 37.6758 62.5781 33.5742 66.7969 30.4688C67.0312 30.2344 65.8594 30.5273 66.0937 30.293C66.3867 30.0586 68.0859 29.3555 68.4375 29.1797C68.8477 29.0039 66.7383 28.0664 64.8633 28.3008C62.9883 28.5352 62.5781 28.7695 61.5234 29.1797C61.9336 28.7695 63.2812 28.1836 62.9883 28.2422C60.9375 28.5352 58.418 29.7656 56.25 31.1133C56.25 30.8789 56.3086 30.6445 56.3672 30.4102C55.3711 30.8203 52.8516 32.5781 52.1484 34.043C52.207 33.75 52.207 33.457 52.207 33.1641C51.4453 33.8086 50.7422 34.5117 50.1562 35.332L49.8047 35.4492C43.9453 33.1055 38.7305 32.9297 34.3945 33.9844C33.457 33.0469 32.9883 33.75 30.7617 28.9453C30.5859 28.6523 30.8789 29.2383 30.7617 28.9453C30.4102 28.0078 30.9961 30.1758 30.7617 28.9453C27.1289 31.875 22.3242 35.1563 19.9805 37.4414C19.9805 37.5586 22.6758 36.6797 19.9805 37.4414C19.043 37.7344 19.1016 38.2617 18.9844 43.3594C18.9258 43.7695 18.9844 44.1797 18.9258 44.5312C17.0508 46.875 15.8203 48.8672 15.3516 49.9219C12.9492 54.0234 10.3125 60.4688 7.79297 70.6055C8.90625 67.8516 10.2539 65.2148 11.8359 62.6953C9.72656 68.0859 7.67578 76.582 7.26562 89.5898C7.79297 86.8945 8.4375 84.2578 9.25781 81.6211C8.73047 92.4609 10.6055 103.242 14.707 113.262C16.1719 116.836 18.5742 122.285 22.7344 128.262C35.7422 141.914 54.0234 150.41 74.2969 150.41C95.4492 150.41 114.492 141.152 127.559 126.445Z" fill="url(#paint2_linear_1486_247)"/>
<path d="M111.855 136.348C137.461 133.359 148.828 106.992 134.238 106.465C121.113 106.055 99.7265 137.754 111.855 136.348Z" fill="url(#paint3_radial_1486_247)"/>
<path d="M136.113 101.074C153.75 90.8203 149.121 68.6719 149.121 68.6719C149.121 68.6719 142.324 76.582 137.695 89.1797C133.184 101.66 125.508 107.285 136.113 101.074Z" fill="url(#paint4_radial_1486_247)"/>
<path d="M80.1562 149.473C104.766 157.324 125.859 137.93 112.852 131.484C101.016 125.684 68.4961 145.781 80.1562 149.473Z" fill="url(#paint5_radial_1486_247)"/>
<path d="M137.988 110.508C138.574 109.688 139.395 106.992 140.098 105.762C144.434 98.7305 144.492 93.1641 144.492 93.0469C147.129 79.9805 146.895 74.5898 145.254 64.7461C143.965 56.7773 138.281 45.3516 133.359 39.9023C128.32 34.2187 131.836 36.0938 126.973 31.9336C122.695 27.1875 118.477 22.4414 116.25 20.5664C99.8437 6.85547 100.195 3.92578 100.547 3.45703L100.312 3.69141C100.137 2.92969 99.9609 2.28516 99.9609 2.28516C99.9609 2.28516 90.9375 11.1914 89.0625 26.1328C87.832 35.8594 91.4648 46.0547 96.7969 52.5586C99.5508 55.957 102.656 59.0039 106.055 61.6992C110.039 67.4414 112.266 74.5312 112.266 82.1484C112.266 101.25 96.7969 116.66 77.6953 116.66C75.1172 116.66 72.4805 116.367 69.9609 115.781C60.9375 114.082 55.7812 109.512 53.1445 106.406C51.6797 104.648 51.0352 103.359 51.0352 103.359C59.1211 106.23 68.0273 105.645 73.4766 102.656C78.9258 99.6094 82.2656 97.3828 84.9609 98.2617C87.5977 99.1406 89.707 96.5625 87.832 93.9258C85.957 91.2891 81.1523 87.4805 74.0039 88.5352C68.5547 89.3555 63.5156 93.2227 56.3672 89.4727C55.8984 89.2383 55.4297 88.9453 55.0195 88.7109C54.5508 88.418 56.543 89.1211 56.0742 88.8281C54.668 88.125 52.207 86.6602 51.5625 86.1328C51.4453 86.0156 52.6172 86.4844 52.5586 86.3672C45.8789 81.4453 46.6992 78.1055 46.875 75.9961C47.0508 74.2969 48.2812 72.1875 50.332 71.3086C51.3281 71.7773 51.9141 72.1875 51.9141 72.1875C51.9141 72.1875 51.5039 71.4258 51.2695 71.0156C51.3281 70.957 51.4453 71.0156 51.5039 70.957C52.3242 71.3086 54.1406 72.1875 55.0781 72.7734C56.3086 73.5352 56.7188 74.2383 56.7188 74.2383C56.7188 74.2383 57.0703 74.0625 56.7773 73.418C56.6602 73.125 56.3086 72.2461 55.0781 71.3672H55.1367C55.8398 71.7188 56.543 72.1875 57.1875 72.6562C57.5391 71.543 58.125 70.3711 58.0078 68.2617C57.9492 66.7969 57.9492 66.3867 57.6562 65.8594C57.4219 65.3906 57.7734 65.1562 58.2422 65.6836C58.1836 65.2734 58.0078 64.9219 57.832 64.5117V64.4531C58.418 62.6953 69.7266 58.125 70.5469 57.5977C71.8945 56.7773 73.0078 55.6641 73.8867 54.375C74.5312 53.4961 75 52.207 75.1172 50.2734C75.1758 49.3945 74.8828 48.75 71.8945 48.0469C70.0781 47.6367 67.3242 47.2852 62.9883 46.875C59.8828 46.582 58.0078 44.5898 56.9531 42.7148C56.7773 42.3047 56.543 41.9531 56.3672 41.6016C56.1914 41.1914 56.0156 40.7227 55.8984 40.3125C57.7734 35.3906 61.1719 31.2305 65.5664 28.3594C65.8008 28.125 64.5703 28.418 64.8047 28.1836C65.0977 27.9492 67.0312 27.2461 67.3828 27.0703C67.8516 26.8945 65.5078 26.0156 63.3984 26.1914C61.2891 26.4258 60.8789 26.6016 59.707 27.0703C60.1758 26.6602 61.6406 26.1328 61.2891 26.1328C59.1797 26.3672 56.3672 27.5391 53.9648 28.8867C53.9648 28.6523 54.0234 28.418 54.082 28.1836C52.9688 28.5937 50.2148 30.3516 49.3945 31.8164C49.4531 31.5234 49.4531 31.2305 49.4531 30.9961C48.6328 31.6406 47.8125 32.3437 47.168 33.1641L47.1094 33.2227C40.6055 30.8789 34.8633 30.7031 30.0586 31.7578C29.0039 30.8203 27.3047 29.3555 24.9023 24.6094C24.7266 24.3164 24.668 25.1953 24.5508 24.9023C23.6133 22.7344 23.0273 19.1602 23.1445 16.6992C23.1445 16.6992 21.2109 17.5781 19.6289 21.2695C19.3359 21.9141 19.1602 22.3242 18.9258 22.6758C18.8086 22.793 19.1016 21.4453 19.1016 21.5625C18.8086 22.0312 18.1055 22.6758 17.8125 23.5547C17.5781 24.1992 17.2852 24.5508 17.1094 25.3125L17.0508 25.3711C17.0508 25.1367 17.1094 24.4336 17.0508 24.5508C16.2891 26.0742 15.6445 27.6562 15.1172 29.2383C14.2383 32.0508 13.2422 35.918 13.0664 40.957C13.0078 41.3086 13.0664 41.7773 13.0078 42.1289C10.957 44.4727 9.55078 46.4648 9.02344 47.4609C6.38672 51.5625 3.45703 57.8906 0.644531 67.9688C1.875 65.2148 3.39844 62.5781 5.15625 60.1172C2.8125 65.4492 0.527344 73.8867 0.0585938 86.7774C0.644531 84.082 1.34766 81.4453 2.22656 78.8672C1.81641 87.4805 2.8125 98.2031 8.26172 110.273C11.4844 117.363 18.9258 131.777 37.1484 143.027C37.1484 143.027 43.3594 147.656 53.9648 151.113C54.7266 151.406 55.5469 151.699 56.3672 151.934C56.1328 151.816 55.8398 151.699 55.6055 151.641C62.6953 153.75 70.0195 154.863 77.4609 154.863C105 154.863 113.145 143.789 113.145 143.789L113.086 143.848C113.496 143.496 113.848 143.086 114.199 142.734C109.863 146.836 99.9023 147.129 96.2109 146.836C102.539 144.961 106.699 143.379 114.785 140.332C115.723 139.98 116.719 139.57 117.715 139.102L118.008 138.926C118.184 138.809 118.418 138.75 118.594 138.633C122.52 136.758 126.27 134.473 129.668 131.719C137.812 125.215 139.57 118.887 140.508 114.727C140.391 115.137 139.98 116.074 139.688 116.66C137.578 121.113 132.949 123.926 127.91 126.27C130.312 123.105 132.539 119.824 134.59 116.426C136.23 114.785 136.699 112.207 137.988 110.508Z" fill="url(#paint6_radial_1486_247)"/>
<path d="M128.086 126.035C131.426 122.402 134.355 118.184 136.641 113.438C142.441 101.25 151.406 80.918 144.375 59.7656C138.809 43.0078 131.133 33.8672 121.406 24.9023C105.586 10.3711 101.191 3.86719 101.191 0C101.191 0 82.9101 20.332 90.8203 41.6016C98.7304 62.8711 114.961 62.0508 125.684 84.1992C138.34 110.273 115.488 138.75 96.5624 146.719C97.7343 146.484 138.574 137.227 140.742 113.848C140.625 114.258 139.687 120.762 128.086 126.035Z" fill="url(#paint7_radial_1486_247)"/>
<path d="M75.1171 50.2734C75.1757 48.8672 74.4726 47.9883 63.0468 46.875C58.3593 46.4648 56.5429 42.1289 56.0156 40.2539C54.3749 44.5898 53.6718 49.1602 54.0234 54.668C54.2578 58.3008 56.7187 62.168 57.832 64.3945C57.832 64.3945 58.0663 64.043 58.1835 63.9258C60.3515 61.6406 69.4921 58.1836 70.371 57.7148C71.3671 57.1289 74.9999 54.4922 75.1171 50.2734Z" fill="url(#paint8_linear_1486_247)"/>
<path d="M24.9024 24.6094C24.7266 24.3164 24.668 25.1953 24.5509 24.9023C23.6134 22.7344 23.0274 19.2188 23.2032 16.6992C23.2032 16.6992 21.2696 17.5781 19.6876 21.2695C19.3946 21.9141 19.2188 22.3242 18.9844 22.6758C18.8673 22.793 19.1602 21.4453 19.1602 21.5625C18.8673 22.0312 18.1641 22.6758 17.8712 23.4961C17.6368 24.1406 17.3438 24.5508 17.168 25.3711C17.1094 25.6055 17.2266 24.375 17.168 24.5508C13.418 31.7578 12.7149 42.6563 13.1251 42.1875C21.0938 33.6914 30.1759 31.6992 30.1759 31.6992C29.0626 30.9961 26.9532 28.8867 24.9024 24.6094Z" fill="url(#paint9_linear_1486_247)"/>
<path d="M55.0195 113.32C44.0625 108.633 31.582 102.012 32.0508 87.0117C32.6953 67.2656 50.5078 71.1328 50.5078 71.1328C49.8633 71.3086 48.0469 72.5977 47.4023 73.9453C46.7578 75.6445 45.5273 79.5117 49.2187 83.5547C55.0781 89.8828 37.207 98.5547 64.7461 114.961C65.4492 115.312 58.3008 114.727 55.0195 113.32Z" fill="url(#paint10_linear_1486_247)"/>
<path d="M51.1524 103.477C58.9454 106.172 67.9688 105.703 73.418 102.715C77.0508 100.664 81.7383 97.4414 84.5508 98.2617C82.0899 97.2656 80.2149 96.7969 77.9297 96.7383C77.5196 96.7383 77.1094 96.7383 76.6993 96.6797C75.8789 96.6797 75.0586 96.7383 74.2383 96.7969C72.8321 96.9141 71.3086 97.793 69.9024 97.6758C69.8438 97.6758 71.25 97.0898 71.1329 97.0898C70.3711 97.2656 69.5508 97.2656 68.7305 97.3828C68.2032 97.4414 67.7344 97.5 67.1485 97.5586C50.918 98.9062 37.2657 88.7695 37.2657 88.7695C36.0938 92.6367 42.4805 100.43 51.1524 103.477Z" fill="url(#paint11_linear_1486_247)"/>
<path d="M128.027 126.152C144.434 110.039 152.695 90.5273 149.18 68.5547C149.18 68.5547 150.586 79.8047 145.254 91.2891C147.832 80.0391 148.125 66.0938 141.328 51.6211C132.305 32.3438 117.422 22.1484 111.738 17.9297C103.125 11.4844 99.5507 4.98047 99.4921 3.63281C96.914 8.90625 89.121 26.9531 98.6718 42.4805C107.578 57.0703 121.641 61.3477 131.426 74.707C149.59 99.375 128.027 126.152 128.027 126.152Z" fill="url(#paint12_linear_1486_247)"/>
<path d="M125.684 84.2578C119.941 72.4219 112.793 67.2656 106.055 61.6992C106.816 62.8125 107.051 63.1641 107.461 63.9258C113.437 70.2539 122.168 85.7226 115.84 105.176C103.828 141.738 55.8984 124.512 50.8594 119.707C52.9102 140.859 88.3008 150.996 111.387 137.285C124.453 124.746 135.059 103.652 125.684 84.2578Z" fill="url(#paint13_linear_1486_247)"/>
<defs>
<radialGradient id="paint0_radial_1486_247" cx="0" cy="0" r="1" gradientUnits="userSpaceOnUse" gradientTransform="translate(147.212 47.8319) rotate(2.2603) scale(53.9587 79.5319)">
<stop offset="0.1" stop-color="#FFEA00"/>
<stop offset="0.17" stop-color="#FFDE00"/>
<stop offset="0.28" stop-color="#FFBF00"/>
<stop offset="0.43" stop-color="#FF8E00"/>
<stop offset="0.77" stop-color="#FF272D"/>
<stop offset="0.87" stop-color="#E0255A"/>
<stop offset="0.95" stop-color="#CC2477"/>
<stop offset="1" stop-color="#C42482"/>
</radialGradient>
<radialGradient id="paint1_radial_1486_247" cx="0" cy="0" r="1" gradientUnits="userSpaceOnUse" gradientTransform="translate(98.2084 23.9507) scale(153.128)">
<stop stop-color="#00CCDA"/>
<stop offset="0.22" stop-color="#0083FF"/>
<stop offset="0.26" stop-color="#007AF9"/>
<stop offset="0.33" stop-color="#005FE7"/>
<stop offset="0.44" stop-color="#2639AD"/>
<stop offset="0.52" stop-color="#401E84"/>
<stop offset="0.57" stop-color="#4A1475"/>
</radialGradient>
<linearGradient id="paint2_linear_1486_247" x1="85.1033" y1="114.718" x2="54.9826" y2="16.1889" gradientUnits="userSpaceOnUse">
<stop stop-color="#000F43" stop-opacity="0.4"/>
<stop offset="0.48" stop-color="#001962" stop-opacity="0.17"/>
<stop offset="1" stop-color="#002079" stop-opacity="0"/>
</linearGradient>
<radialGradient id="paint3_radial_1486_247" cx="0" cy="0" r="1" gradientUnits="userSpaceOnUse" gradientTransform="translate(151.937 103.018) rotate(5.61742) scale(51.4762)">
<stop stop-color="#FFEA00"/>
<stop offset="0.5" stop-color="#FF272D"/>
<stop offset="1" stop-color="#C42482"/>
</radialGradient>
<radialGradient id="paint4_radial_1486_247" cx="0" cy="0" r="1" gradientUnits="userSpaceOnUse" gradientTransform="translate(152.133 53.4405) rotate(5.61742) scale(85.9601)">
<stop stop-color="#FFE900"/>
<stop offset="0.16" stop-color="#FFAF0E"/>
<stop offset="0.32" stop-color="#FF7A1B"/>
<stop offset="0.47" stop-color="#FF4E26"/>
<stop offset="0.62" stop-color="#FF2C2E"/>
<stop offset="0.76" stop-color="#FF1434"/>
<stop offset="0.89" stop-color="#FF0538"/>
<stop offset="1" stop-color="#FF0039"/>
</radialGradient>
<radialGradient id="paint5_radial_1486_247" cx="0" cy="0" r="1" gradientUnits="userSpaceOnUse" gradientTransform="translate(156.434 133.932) rotate(5.61742) scale(78.8776)">
<stop stop-color="#FF272D"/>
<stop offset="0.5" stop-color="#C42482"/>
<stop offset="0.99" stop-color="#620700"/>
</radialGradient>
<radialGradient id="paint6_radial_1486_247" cx="0" cy="0" r="1" gradientUnits="userSpaceOnUse" gradientTransform="translate(112.528 61.9957) scale(123.068)">
<stop offset="0.16" stop-color="#FFEA00"/>
<stop offset="0.23" stop-color="#FFDE00"/>
<stop offset="0.37" stop-color="#FFBF00"/>
<stop offset="0.54" stop-color="#FF8E00"/>
<stop offset="0.76" stop-color="#FF272D"/>
<stop offset="0.8" stop-color="#F92433"/>
<stop offset="0.84" stop-color="#E91C45"/>
<stop offset="0.89" stop-color="#CF0E62"/>
<stop offset="0.94" stop-color="#B5007F"/>
</radialGradient>
<radialGradient id="paint7_radial_1486_247" cx="0" cy="0" r="1" gradientUnits="userSpaceOnUse" gradientTransform="translate(105.471 4.92064) scale(140.261)">
<stop offset="0.28" stop-color="#FFEA00"/>
<stop offset="0.4" stop-color="#FFDD00"/>
<stop offset="0.63" stop-color="#FFBA00"/>
<stop offset="0.86" stop-color="#FF9100"/>
<stop offset="0.93" stop-color="#FF6711"/>
<stop offset="0.99" stop-color="#FF4A1D"/>
</radialGradient>
<linearGradient id="paint8_linear_1486_247" x1="23.3763" y1="57.4476" x2="83.7892" y2="48.2221" gradientUnits="userSpaceOnUse">
<stop stop-color="#C42482" stop-opacity="0.5"/>
<stop offset="0.47" stop-color="#FF272D" stop-opacity="0.5"/>
<stop offset="0.49" stop-color="#FF2C2C" stop-opacity="0.51"/>
<stop offset="0.68" stop-color="#FF7A1A" stop-opacity="0.72"/>
<stop offset="0.83" stop-color="#FFB20D" stop-opacity="0.87"/>
<stop offset="0.94" stop-color="#FFD605" stop-opacity="0.96"/>
<stop offset="1" stop-color="#FFE302"/>
</linearGradient>
<linearGradient id="paint9_linear_1486_247" x1="22.9215" y1="41.6051" x2="16.622" y2="18.9628" gradientUnits="userSpaceOnUse">
<stop stop-color="#891551" stop-opacity="0.6"/>
<stop offset="1" stop-color="#C42482" stop-opacity="0"/>
</linearGradient>
<linearGradient id="paint10_linear_1486_247" x1="34.4215" y1="73.4223" x2="47.3985" y2="91.5512" gradientUnits="userSpaceOnUse">
<stop offset="0.01" stop-color="#891551" stop-opacity="0.5"/>
<stop offset="0.48" stop-color="#FF272D" stop-opacity="0.5"/>
<stop offset="1" stop-color="#FF272D" stop-opacity="0"/>
</linearGradient>
<linearGradient id="paint11_linear_1486_247" x1="59.7101" y1="104.983" x2="60.8977" y2="93.3361" gradientUnits="userSpaceOnUse">
<stop stop-color="#C42482"/>
<stop offset="0.08" stop-color="#C42482" stop-opacity="0.81"/>
<stop offset="0.21" stop-color="#C42482" stop-opacity="0.57"/>
<stop offset="0.33" stop-color="#C42482" stop-opacity="0.36"/>
<stop offset="0.45" stop-color="#C42482" stop-opacity="0.2"/>
<stop offset="0.56" stop-color="#C42482" stop-opacity="0.09"/>
<stop offset="0.67" stop-color="#C42482" stop-opacity="0.02"/>
<stop offset="0.77" stop-color="#C42482" stop-opacity="0"/>
</linearGradient>
<linearGradient id="paint12_linear_1486_247" x1="97.6119" y1="5.6918" x2="145.703" y2="113.23" gradientUnits="userSpaceOnUse">
<stop stop-color="#FFF14F"/>
<stop offset="0.27" stop-color="#FFEE4C"/>
<stop offset="0.45" stop-color="#FFE643"/>
<stop offset="0.61" stop-color="#FFD834"/>
<stop offset="0.76" stop-color="#FFC41E"/>
<stop offset="0.89" stop-color="#FFAB02"/>
<stop offset="0.9" stop-color="#FFA900"/>
<stop offset="0.95" stop-color="#FFA000"/>
<stop offset="1" stop-color="#FF9100"/>
</linearGradient>
<linearGradient id="paint13_linear_1486_247" x1="107.161" y1="67.5434" x2="84.3814" y2="128.708" gradientUnits="userSpaceOnUse">
<stop stop-color="#FF8E00"/>
<stop offset="0.04" stop-color="#FF8E00" stop-opacity="0.86"/>
<stop offset="0.08" stop-color="#FF8E00" stop-opacity="0.73"/>
<stop offset="0.13" stop-color="#FF8E00" stop-opacity="0.63"/>
<stop offset="0.18" stop-color="#FF8E00" stop-opacity="0.56"/>
<stop offset="0.23" stop-color="#FF8E00" stop-opacity="0.51"/>
<stop offset="0.28" stop-color="#FF8E00" stop-opacity="0.5"/>
<stop offset="0.39" stop-color="#FF8E00" stop-opacity="0.48"/>
<stop offset="0.52" stop-color="#FF8E00" stop-opacity="0.42"/>
<stop offset="0.68" stop-color="#FF8E00" stop-opacity="0.31"/>
<stop offset="0.84" stop-color="#FF8E00" stop-opacity="0.17"/>
<stop offset="1" stop-color="#FF8E00" stop-opacity="0"/>
</linearGradient>
</defs>
</svg>
