<svg width="60" height="60" viewBox="0 0 60 60" fill="none" xmlns="http://www.w3.org/2000/svg">
<path d="M46.6667 26.6667C47.6667 26.6667 49 26.6667 50 27V11L25 0L0 11V27.3333C0 42.3333 10.6667 56.6667 25 60C27 59.6667 28.6667 59 30.3333 58.3333C28 55 26.6667 51 26.6667 46.6667C26.6667 35.6667 35.6667 26.6667 46.6667 26.6667ZM46.6667 33.3333C39.3333 33.3333 33.3333 39.3333 33.3333 46.6667C33.3333 54 39.3333 60 46.6667 60C54 60 60 54 60 46.6667C60 39.3333 54 33.3333 46.6667 33.3333ZM46.6667 38C48.6667 38 50.3333 39.6667 50.3333 41.6667C50.3333 43.6667 48.6667 45.3333 46.6667 45.3333C44.6667 45.3333 43 43.6667 43 41.6667C43 39.6667 44.6667 38 46.6667 38ZM46.6667 56C43.6667 56 41 54.3333 39.3333 52C39.6667 49.6667 44.3333 48.3333 46.6667 48.3333C49 48.3333 54 49.6667 54 52C52.3333 54.3333 49.6667 56 46.6667 56Z" fill="black"/>
</svg>
